Coordinates
version=1
nRows=38
nColumns=12
inDegrees=yes

Units are S.I. units (second, meters, Newtons, ...)
Angles are in degrees

endheader
time	SC_y	SC_z	SC_x	AC_y	AC_z	AC_x	GH_y	GH_z	GH_yy	EL_x	PS_y
       0.0              -19.81           24.1          22.55          61.52          4.898          5.722          34.11         -12.71         -162.0          91.07          80.15
   0.04268              -19.81           24.1          22.55          61.52          4.898          5.721           34.1         -12.71         -162.0          91.06          80.16
   0.08535              -19.82          24.09          22.55          61.52          4.898          5.721          34.09         -12.71         -161.9          91.05          80.16
     0.128              -19.82          24.09          22.55          61.51          4.899           5.72          34.07         -12.71         -161.9          91.04          80.17
    0.1707              -19.82          24.09          22.55          61.51          4.899          5.719          34.06          -12.7         -161.9          91.03          80.17
    0.2134              -19.83          24.09          22.55          61.51            4.9          5.718          34.05          -12.7         -161.9          91.02          80.17
    0.2561              -19.83          24.08          22.55           61.5            4.9          5.718          34.04          -12.7         -161.9          91.01          80.18
    0.2987              -19.84          24.08          22.55           61.5          4.901          5.717          34.02         -12.69         -161.9           91.0          80.18
    0.3414              -19.84          24.07          22.55           61.5          4.901          5.716          34.01         -12.69         -161.8          90.98          80.19
    0.3841              -19.85          24.07          22.55          61.49          4.902          5.715          33.99         -12.69         -161.8          90.97          80.19
    0.4268              -19.85          24.07          22.55          61.49          4.903          5.714          33.97         -12.68         -161.8          90.95           80.2
    0.4694              -19.86          24.06          22.54          61.48          4.903          5.713          33.95         -12.68         -161.8          90.93          80.21
    0.5121              -19.87          24.06          22.54          61.48          4.904          5.711          33.93         -12.68         -161.8          90.92          80.21
    0.5548              -19.87          24.05          22.54          61.47          4.905           5.71          33.91         -12.67         -161.7           90.9          80.22
    0.5975              -19.88          24.04          22.54          61.46          4.906          5.709          33.88         -12.66         -161.7          90.88          80.23
    0.6401              -19.89          24.04          22.54          61.46          4.907          5.707          33.86         -12.66         -161.7          90.85          80.24
    0.6828               -19.9          24.03          22.54          61.45          4.908          5.705          33.83         -12.65         -161.6          90.83          80.25
    0.7255              -19.91          24.02          22.54          61.44          4.909          5.704          33.79         -12.65         -161.6           90.8          80.26
    0.7682              -19.92          24.02          22.54          61.43           4.91          5.702          33.76         -12.64         -161.5          90.77          80.27
    0.8108              -19.93          24.01          22.54          61.42          4.912          5.699          33.72         -12.63         -161.5          90.74          80.28
    0.8535              -19.94           24.0          22.54          61.41          4.913          5.697          33.68         -12.62         -161.4           90.7           80.3
    0.8962              -19.96          23.99          22.54           61.4          4.915          5.694          33.63         -12.61         -161.4          90.66          80.31
    0.9389              -19.97          23.97          22.53          61.39          4.917          5.691          33.58          -12.6         -161.3          90.62          80.33
    0.9815              -19.99          23.96          22.53          61.37          4.919          5.688          33.53         -12.59         -161.3          90.57          80.35
     1.024              -20.01          23.94          22.53          61.36          4.921          5.684          33.47         -12.58         -161.2          90.52          80.37
     1.067              -20.03          23.93          22.53          61.34          4.924           5.68           33.4         -12.56         -161.1          90.46          80.39
      1.11              -20.06          23.91          22.53          61.32          4.926          5.676          33.32         -12.54         -161.0          90.39          80.42
     1.152              -20.08          23.89          22.53          61.29           4.93          5.671          33.23         -12.52         -160.9          90.31          80.45
     1.195              -20.11          23.86          22.52          61.27          4.933          5.665          33.13          -12.5         -160.8          90.23          80.48
     1.238              -20.15          23.84          22.52          61.24          4.937          5.658          33.02         -12.48         -160.6          90.13          80.52
      1.28              -20.19          23.81          22.52          61.21          4.942          5.651          32.89         -12.45         -160.5          90.02          80.56
     1.323              -20.24          23.77          22.51          61.17          4.947          5.642          32.74         -12.42         -160.3          89.89          80.61
     1.366              -20.29          23.73          22.51          61.12          4.954          5.632          32.57         -12.38         -160.1          89.75          80.67
     1.408              -20.35          23.68           22.5          61.07          4.961          5.621          32.38         -12.34         -159.9          89.58          80.73
     1.451              -20.42          23.63           22.5          61.01          4.969          5.608          32.14         -12.29         -159.6          89.38          80.81
     1.494              -20.51          23.56          22.49          60.94          4.979          5.592          31.87         -12.23         -159.2          89.14           80.9
     1.536              -20.61          23.48          22.48          60.86          4.991          5.573          31.55         -12.16         -158.8          88.86          81.01
     1.579              -20.73          23.39          22.47          60.76          5.005           5.55          31.16         -12.08         -158.4          88.53          81.14
